<?xml version="1.0" encoding="UTF-8" standalone="no"?>
<svg
   id="Calque_1"
   data-name="Calque 1"
   viewBox="0 0 223.94001 215.49"
   version="1.1"
   sodipodi:docname="P1-03.svg"
   width="223.94"
   height="215.49001"
   xmlns:inkscape="http://www.inkscape.org/namespaces/inkscape"
   xmlns:sodipodi="http://sodipodi.sourceforge.net/DTD/sodipodi-0.dtd"
   xmlns="http://www.w3.org/2000/svg"
   xmlns:svg="http://www.w3.org/2000/svg">
  <sodipodi:namedview
     id="namedview13"
     pagecolor="#ffffff"
     bordercolor="#666666"
     borderopacity="1.0"
     inkscape:pageshadow="2"
     inkscape:pageopacity="0.0"
     inkscape:pagecheckerboard="0"
     showgrid="false" />
  <defs
     id="defs4">
    <style
       id="style2">.cls-1{fill:#0041e2;}.cls-2{fill:#fff;}</style>
  </defs>
  <path
     class="cls-1"
     d="M 61.59,45.99 A 12.31,12.31 0 0 0 73.9,33.68 v -20.2 a 12.32,12.32 0 0 0 -24.63,0 v 20.16 a 12.32,12.32 0 0 0 12.32,12.35 z m 100.77,-1.15 a 12.33,12.33 0 0 0 12.32,-12.32 v -20.2 a 12.32,12.32 0 0 0 -24.64,0 v 20.16 a 12.33,12.33 0 0 0 12.32,12.32 z m 50.38,-26.37 h -31.3 v 14 c 0,10.34 -8,19.17 -18.36,19.53 A 19,19 0 0 1 143.37,33 V 18.47 h -62.7 v 14 c 0,10.34 -8,19.17 -18.38,19.52 A 19,19 0 0 1 42.6,32.99 V 18.47 H 11.24 A 11.24,11.24 0 0 0 0,29.71 v 174.55 a 11.23,11.23 0 0 0 11.24,11.23 H 212.7 a 11.24,11.24 0 0 0 11.24,-11.24 V 29.63 a 11.19,11.19 0 0 0 -11.2,-11.2 z"
     id="path6" />
  <path
     class="cls-2"
     d="m 110.64,166.61 h 47.22 V 119.39 A 47.22,47.22 0 0 0 110.64,72.17 v 0 a 47.22,47.22 0 0 0 -47.22,47.22 v 0 a 47.22,47.22 0 0 0 47.22,47.22 z"
     id="path8" />
  <path
     class="cls-1"
     d="m 131.84,104.57 a 5,5 0 0 0 -3.53,-1.47 4.92,4.92 0 0 0 -3.54,1.47 l -20.93,20.82 -6.7,-6.75 a 5,5 0 0 0 -7.12,7 l 10.24,10.35 a 5,5 0 0 0 7.07,0 l 24.49,-24.34 a 5,5 0 0 0 0,-7.07 z"
     id="path10" />
</svg>
